<svg width="193" height="48" viewBox="0 0 193 48" fill="none" xmlns="http://www.w3.org/2000/svg">
<path d="M13.728 14.5C13.8 14.5 13.836 14.572 13.836 14.716C13.836 14.86 13.8 14.932 13.728 14.932C13.104 14.932 12.636 15.004 12.324 15.148C12.036 15.292 11.844 15.544 11.748 15.904C11.652 16.24 11.604 16.768 11.604 17.488V37.144C11.604 39.832 10.932 41.932 9.588 43.444C8.268 44.956 6.42 45.712 4.044 45.712C3.132 45.712 2.388 45.52 1.812 45.136C1.236 44.752 0.948 44.224 0.948 43.552C0.948 43.072 1.104 42.64 1.416 42.256C1.728 41.896 2.196 41.716 2.82 41.716C3.42 41.716 3.876 41.896 4.188 42.256C4.524 42.616 4.824 43.12 5.088 43.768C5.232 44.152 5.376 44.44 5.52 44.632C5.664 44.848 5.844 44.956 6.06 44.956C6.564 44.956 6.936 44.548 7.176 43.732C7.416 42.916 7.536 41.56 7.536 39.664V17.416C7.536 16.696 7.452 16.168 7.284 15.832C7.14 15.496 6.864 15.268 6.456 15.148C6.048 15.004 5.4 14.932 4.512 14.932C4.464 14.932 4.44 14.86 4.44 14.716C4.44 14.572 4.464 14.5 4.512 14.5L6.744 14.536C7.896 14.584 8.82 14.608 9.516 14.608C10.188 14.608 11.028 14.584 12.036 14.536L13.728 14.5ZM29.8613 35.056C29.9573 35.056 30.0173 35.116 30.0413 35.236C30.0893 35.332 30.0653 35.404 29.9693 35.452L26.2613 37.216C26.1653 37.264 26.0453 37.288 25.9013 37.288C25.5413 37.288 25.1813 37.108 24.8213 36.748C24.4853 36.388 24.2453 35.896 24.1013 35.272L22.4453 36.172C21.8213 36.484 21.1733 36.748 20.5013 36.964C19.8293 37.156 19.2293 37.252 18.7013 37.252C17.9333 37.252 17.3213 37.06 16.8653 36.676C16.4333 36.268 16.2173 35.692 16.2173 34.948C16.2173 34.396 16.3493 33.952 16.6133 33.616C16.9013 33.28 17.2973 33.004 17.8013 32.788C18.3293 32.548 19.1573 32.236 20.2853 31.852L23.9573 30.664V27.82C23.9573 26.38 23.8133 25.324 23.5253 24.652C23.2373 23.956 22.7693 23.608 22.1213 23.608C21.5453 23.608 21.0893 23.824 20.7533 24.256C20.4173 24.688 20.2133 25.396 20.1413 26.38C19.9973 27.724 19.2893 28.396 18.0173 28.396C16.8893 28.396 16.3253 27.904 16.3253 26.92C16.3253 26.272 16.7333 25.624 17.5493 24.976C18.3653 24.328 19.3493 23.8 20.5013 23.392C21.6533 22.984 22.6613 22.78 23.5253 22.78C24.6533 22.78 25.5653 23.116 26.2613 23.788C26.9813 24.46 27.3413 25.444 27.3413 26.74V33.112C27.3413 33.808 27.4613 34.348 27.7013 34.732C27.9653 35.116 28.3253 35.308 28.7813 35.308C29.1173 35.308 29.4653 35.224 29.8253 35.056H29.8613ZM23.9933 34.696C23.9693 34.528 23.9573 34.276 23.9573 33.94V31.276L21.9773 31.996C21.3293 32.236 20.8613 32.5 20.5733 32.788C20.3093 33.076 20.1773 33.424 20.1773 33.832C20.1773 34.336 20.3213 34.732 20.6093 35.02C20.8973 35.308 21.2573 35.452 21.6893 35.452C22.2173 35.452 22.8293 35.284 23.5253 34.948L23.9933 34.696ZM38.3537 37.432C36.7697 37.432 35.4257 37.096 34.3217 36.424C33.2417 35.728 32.4257 34.84 31.8737 33.76C31.3457 32.656 31.0817 31.504 31.0817 30.304C31.0817 28.792 31.5017 27.472 32.3417 26.344C33.1817 25.192 34.2497 24.316 35.5457 23.716C36.8657 23.092 38.2097 22.78 39.5777 22.78C40.7297 22.78 41.7617 23.02 42.6737 23.5C43.6097 23.98 44.0777 24.64 44.0777 25.48C44.0777 25.936 43.8977 26.332 43.5377 26.668C43.2017 26.98 42.7217 27.136 42.0977 27.136C41.5217 27.136 41.0657 26.992 40.7297 26.704C40.3937 26.392 40.1177 25.924 39.9017 25.3C39.6857 24.628 39.4697 24.172 39.2537 23.932C39.0617 23.668 38.7017 23.536 38.1737 23.536C37.1417 23.536 36.3137 24.052 35.6897 25.084C35.0897 26.092 34.7897 27.436 34.7897 29.116C34.7897 31.108 35.2337 32.704 36.1217 33.904C37.0097 35.08 38.4257 35.668 40.3697 35.668C41.0177 35.668 41.5697 35.596 42.0257 35.452C42.5057 35.308 43.1057 35.068 43.8257 34.732H43.8617C43.9337 34.732 43.9937 34.768 44.0417 34.84C44.1137 34.912 44.1257 34.972 44.0777 35.02C43.1897 35.836 42.3017 36.448 41.4137 36.856C40.5257 37.24 39.5057 37.432 38.3537 37.432ZM53.5437 37.468C52.0557 37.468 50.7477 37.132 49.6197 36.46C48.5157 35.764 47.6637 34.84 47.0637 33.688C46.4637 32.512 46.1637 31.24 46.1637 29.872C46.1637 28.312 46.5597 26.992 47.3517 25.912C48.1437 24.808 49.1517 23.992 50.3757 23.464C51.5997 22.912 52.8597 22.636 54.1557 22.636C55.6437 22.636 56.9397 22.984 58.0437 23.68C59.1477 24.376 59.9877 25.3 60.5637 26.452C61.1637 27.58 61.4637 28.792 61.4637 30.088C61.4637 31.528 61.1037 32.812 60.3837 33.94C59.6637 35.044 58.6917 35.908 57.4677 36.532C56.2677 37.156 54.9597 37.468 53.5437 37.468ZM54.6237 36.712C55.5597 36.712 56.2677 36.256 56.7477 35.344C57.2517 34.408 57.5037 33.076 57.5037 31.348C57.5037 29.668 57.2877 28.228 56.8557 27.028C56.4237 25.828 55.8597 24.928 55.1637 24.328C54.4677 23.704 53.7237 23.392 52.9317 23.392C51.0117 23.392 50.0517 25.108 50.0517 28.54C50.0517 30.148 50.2557 31.576 50.6637 32.824C51.0717 34.048 51.6237 35.008 52.3197 35.704C53.0157 36.376 53.7837 36.712 54.6237 36.712ZM74.073 22.636C75.153 22.636 76.149 22.888 77.061 23.392C77.973 23.896 78.693 24.652 79.221 25.66C79.773 26.668 80.049 27.892 80.049 29.332C80.049 31.06 79.677 32.536 78.933 33.76C78.213 34.984 77.253 35.908 76.053 36.532C74.877 37.156 73.617 37.468 72.273 37.468C71.361 37.468 70.461 37.324 69.573 37.036C68.709 36.748 67.917 36.328 67.197 35.776L63.921 37.252H63.849C63.753 37.252 63.693 37.204 63.669 37.108C63.645 37.012 63.681 36.952 63.777 36.928C64.353 36.592 64.785 36.136 65.073 35.56C65.385 34.96 65.541 34.204 65.541 33.292V15.796C65.541 14.956 65.457 14.356 65.289 13.996C65.145 13.636 64.869 13.456 64.461 13.456C64.149 13.456 63.705 13.588 63.129 13.852H63.093C62.997 13.852 62.925 13.792 62.877 13.672C62.829 13.528 62.829 13.444 62.877 13.42L68.133 10.936L68.313 10.9C68.433 10.9 68.553 10.96 68.673 11.08C68.817 11.176 68.889 11.272 68.889 11.368V25.048C69.681 24.304 70.485 23.716 71.301 23.284C72.117 22.852 73.041 22.636 74.073 22.636ZM73.137 36.748C74.169 36.748 74.961 36.22 75.513 35.164C76.065 34.108 76.341 32.632 76.341 30.736C76.341 28.648 75.993 27.1 75.297 26.092C74.601 25.06 73.629 24.544 72.381 24.544C71.253 24.544 70.089 24.952 68.889 25.768V31.06C68.889 32.38 69.117 33.472 69.573 34.336C70.029 35.176 70.581 35.788 71.229 36.172C71.877 36.556 72.513 36.748 73.137 36.748ZM115.113 36.568C115.161 36.568 115.185 36.64 115.185 36.784C115.185 36.928 115.161 37 115.113 37H108.705C108.177 37 107.193 36.016 105.753 34.048C104.313 32.056 102.573 29.284 100.533 25.732C100.341 25.756 100.065 25.768 99.705 25.768C98.769 25.768 98.109 25.756 97.725 25.732V34.084C97.725 34.828 97.785 35.368 97.905 35.704C98.025 36.04 98.253 36.268 98.589 36.388C98.949 36.508 99.513 36.568 100.281 36.568C100.329 36.568 100.353 36.64 100.353 36.784C100.353 36.928 100.329 37 100.281 37C99.489 37 98.865 36.988 98.409 36.964L95.673 36.928L93.045 36.964C92.565 36.988 91.917 37 91.101 37C91.029 37 90.993 36.928 90.993 36.784C90.993 36.64 91.029 36.568 91.101 36.568C91.869 36.568 92.421 36.508 92.757 36.388C93.117 36.268 93.357 36.04 93.477 35.704C93.621 35.344 93.693 34.804 93.693 34.084V17.416C93.693 16.696 93.633 16.168 93.513 15.832C93.393 15.496 93.153 15.268 92.793 15.148C92.433 15.004 91.881 14.932 91.137 14.932C91.089 14.932 91.065 14.86 91.065 14.716C91.065 14.572 91.089 14.5 91.137 14.5L93.045 14.536C94.149 14.584 95.025 14.608 95.673 14.608C96.369 14.608 97.137 14.572 97.977 14.5C98.241 14.476 98.577 14.452 98.985 14.428C99.417 14.404 99.921 14.392 100.497 14.392C102.705 14.392 104.409 14.8 105.609 15.616C106.833 16.408 107.445 17.524 107.445 18.964C107.445 20.068 107.109 21.124 106.437 22.132C105.765 23.14 104.889 23.956 103.809 24.58C105.729 27.604 107.337 29.968 108.633 31.672C109.953 33.376 111.117 34.624 112.125 35.416C113.157 36.184 114.153 36.568 115.113 36.568ZM97.725 24.688C98.301 24.784 98.997 24.832 99.813 24.832C100.677 24.832 101.361 24.7 101.865 24.436C102.369 24.172 102.729 23.716 102.945 23.068C103.185 22.42 103.305 21.508 103.305 20.332C103.305 18.364 103.017 17.008 102.441 16.264C101.865 15.52 101.037 15.148 99.957 15.148C99.141 15.148 98.565 15.328 98.229 15.688C97.893 16.048 97.725 16.648 97.725 17.488V24.688ZM116.166 37C116.094 37 116.058 36.928 116.058 36.784C116.058 36.64 116.094 36.568 116.166 36.568C116.91 36.568 117.414 36.4 117.678 36.064C117.942 35.704 118.074 35.044 118.074 34.084V27.64C118.074 26.824 117.99 26.236 117.822 25.876C117.654 25.516 117.378 25.336 116.994 25.336C116.682 25.336 116.238 25.468 115.662 25.732H115.626C115.53 25.732 115.458 25.672 115.41 25.552C115.362 25.408 115.374 25.324 115.446 25.3L120.882 22.78L120.99 22.744C121.11 22.744 121.23 22.804 121.35 22.924C121.47 23.044 121.53 23.152 121.53 23.248V24.04C121.482 25 121.458 26.176 121.458 27.568V34.084C121.458 35.044 121.59 35.704 121.854 36.064C122.142 36.4 122.658 36.568 123.402 36.568C123.474 36.568 123.51 36.64 123.51 36.784C123.51 36.928 123.474 37 123.402 37C122.778 37 122.286 36.988 121.926 36.964L119.766 36.928L117.642 36.964C117.282 36.988 116.79 37 116.166 37ZM119.622 19.18C118.926 19.18 118.386 18.988 118.002 18.604C117.618 18.22 117.426 17.68 117.426 16.984C117.426 16.36 117.618 15.868 118.002 15.508C118.41 15.124 118.95 14.932 119.622 14.932C120.294 14.932 120.81 15.112 121.17 15.472C121.53 15.832 121.71 16.336 121.71 16.984C121.71 17.68 121.53 18.22 121.17 18.604C120.81 18.988 120.294 19.18 119.622 19.18ZM138.187 34.624C138.235 34.624 138.283 34.672 138.331 34.768C138.403 34.864 138.415 34.936 138.367 34.984C137.479 35.848 136.579 36.472 135.667 36.856C134.755 37.24 133.759 37.432 132.679 37.432C131.167 37.432 129.859 37.12 128.755 36.496C127.651 35.848 126.811 34.996 126.235 33.94C125.659 32.86 125.371 31.708 125.371 30.484C125.371 29.092 125.731 27.808 126.451 26.632C127.171 25.432 128.155 24.496 129.403 23.824C130.651 23.128 132.043 22.78 133.579 22.78C135.067 22.78 136.207 23.104 136.999 23.752C137.791 24.376 138.187 25.24 138.187 26.344C138.187 27.04 138.055 27.388 137.791 27.388H135.595L129.115 27.46C129.043 27.916 129.007 28.42 129.007 28.972C129.007 31.036 129.487 32.668 130.447 33.868C131.431 35.068 132.775 35.668 134.479 35.668C135.079 35.668 135.703 35.584 136.351 35.416C136.999 35.248 137.587 34.996 138.115 34.66L138.187 34.624ZM132.247 23.5C131.527 23.5 130.903 23.788 130.375 24.364C129.847 24.94 129.463 25.732 129.223 26.74L134.335 26.632C134.263 24.544 133.567 23.5 132.247 23.5ZM150.714 22.636C151.794 22.636 152.79 22.888 153.702 23.392C154.614 23.896 155.334 24.652 155.862 25.66C156.414 26.668 156.69 27.892 156.69 29.332C156.69 31.06 156.318 32.536 155.574 33.76C154.854 34.984 153.894 35.908 152.694 36.532C151.518 37.156 150.258 37.468 148.914 37.468C148.002 37.468 147.102 37.324 146.214 37.036C145.35 36.748 144.558 36.328 143.838 35.776L140.562 37.252H140.49C140.394 37.252 140.334 37.204 140.31 37.108C140.286 37.012 140.322 36.952 140.418 36.928C140.994 36.592 141.426 36.136 141.714 35.56C142.026 34.96 142.182 34.204 142.182 33.292V15.796C142.182 14.956 142.098 14.356 141.93 13.996C141.786 13.636 141.51 13.456 141.102 13.456C140.79 13.456 140.346 13.588 139.77 13.852H139.734C139.638 13.852 139.566 13.792 139.518 13.672C139.47 13.528 139.47 13.444 139.518 13.42L144.774 10.936L144.954 10.9C145.074 10.9 145.194 10.96 145.314 11.08C145.458 11.176 145.53 11.272 145.53 11.368V25.048C146.322 24.304 147.126 23.716 147.942 23.284C148.758 22.852 149.682 22.636 150.714 22.636ZM149.778 36.748C150.81 36.748 151.602 36.22 152.154 35.164C152.706 34.108 152.982 32.632 152.982 30.736C152.982 28.648 152.634 27.1 151.938 26.092C151.242 25.06 150.27 24.544 149.022 24.544C147.894 24.544 146.73 24.952 145.53 25.768V31.06C145.53 32.38 145.758 33.472 146.214 34.336C146.67 35.176 147.222 35.788 147.87 36.172C148.518 36.556 149.154 36.748 149.778 36.748ZM171.796 34.624C171.844 34.624 171.892 34.672 171.94 34.768C172.012 34.864 172.024 34.936 171.976 34.984C171.088 35.848 170.188 36.472 169.276 36.856C168.364 37.24 167.368 37.432 166.288 37.432C164.776 37.432 163.468 37.12 162.364 36.496C161.26 35.848 160.42 34.996 159.844 33.94C159.268 32.86 158.98 31.708 158.98 30.484C158.98 29.092 159.34 27.808 160.06 26.632C160.78 25.432 161.764 24.496 163.012 23.824C164.26 23.128 165.652 22.78 167.188 22.78C168.676 22.78 169.816 23.104 170.608 23.752C171.4 24.376 171.796 25.24 171.796 26.344C171.796 27.04 171.664 27.388 171.4 27.388H169.204L162.724 27.46C162.652 27.916 162.616 28.42 162.616 28.972C162.616 31.036 163.096 32.668 164.056 33.868C165.04 35.068 166.384 35.668 168.088 35.668C168.688 35.668 169.312 35.584 169.96 35.416C170.608 35.248 171.196 34.996 171.724 34.66L171.796 34.624ZM165.856 23.5C165.136 23.5 164.512 23.788 163.984 24.364C163.456 24.94 163.072 25.732 162.832 26.74L167.944 26.632C167.872 24.544 167.176 23.5 165.856 23.5ZM183.639 22.744C184.191 22.744 184.719 22.948 185.223 23.356C185.751 23.74 186.015 24.208 186.015 24.76C186.015 25.264 185.859 25.684 185.547 26.02C185.235 26.332 184.827 26.488 184.323 26.488C183.963 26.488 183.663 26.416 183.423 26.272C183.207 26.128 182.979 25.912 182.739 25.624C182.523 25.384 182.331 25.216 182.163 25.12C182.019 25 181.839 24.94 181.623 24.94C181.383 24.94 181.119 25.036 180.831 25.228C180.567 25.396 180.147 25.768 179.571 26.344V34.084C179.571 35.044 179.799 35.704 180.255 36.064C180.711 36.4 181.551 36.568 182.775 36.568C182.871 36.568 182.919 36.64 182.919 36.784C182.919 36.928 182.871 37 182.775 37C181.935 37 181.275 36.988 180.795 36.964L177.879 36.928L175.755 36.964C175.395 36.988 174.903 37 174.279 37C174.207 37 174.171 36.928 174.171 36.784C174.171 36.64 174.207 36.568 174.279 36.568C175.023 36.568 175.527 36.4 175.791 36.064C176.055 35.704 176.187 35.044 176.187 34.084V27.316C176.187 26.572 176.091 26.032 175.899 25.696C175.731 25.336 175.455 25.156 175.071 25.156C174.663 25.156 174.087 25.324 173.343 25.66H173.271C173.199 25.66 173.139 25.6 173.091 25.48C173.067 25.36 173.079 25.288 173.127 25.264L178.131 22.816C178.275 22.768 178.359 22.744 178.383 22.744C178.647 22.744 178.887 22.996 179.103 23.5C179.343 23.98 179.487 24.64 179.535 25.48C180.519 24.472 181.323 23.764 181.947 23.356C182.595 22.948 183.159 22.744 183.639 22.744Z" fill="#FE8129"/>
<path d="M127.987 16.9849C126.995 18.196 126.115 19.118 125.019 19.7805C123.773 20.5336 122.159 21 119.63 21C115.196 21 112.824 18.9693 111.252 16.993C112.032 15.9863 112.908 15.0805 114.038 14.3862C115.374 13.566 117.133 13 119.63 13C122.137 13 123.848 13.5328 125.154 14.3306C126.268 15.0114 127.143 15.9178 127.987 16.9849Z" fill="white" stroke="#FE8129" stroke-width="2"/>
<circle cx="119.63" cy="17.1852" r="2.22222" fill="#FE8129"/>
<line y1="-1" x2="5" y2="-1" transform="matrix(-0.575384 -0.817883 -0.817883 0.575384 111.877 12.0894)" stroke="#FE8129" stroke-width="2"/>
<line x1="126.182" y1="11.514" x2="129.059" y2="7.42461" stroke="#FE8129" stroke-width="2"/>
<line x1="120" y1="10" x2="120" y2="5" stroke="#FE8129" stroke-width="2"/>
</svg>
